<svg xmlns="http://www.w3.org/2000/svg" viewBox="0 0 440.81 107.98"><defs><style>.cls-2{fill:#538e9c;}.cls-3{fill:#141414;}</style></defs><title>Zasób 3</title><g id="Warstwa_2" data-name="Warstwa 2"><g id="Warstwa_1-2" data-name="Warstwa 1"><path class="cls-3" d="M8.3,97.63a18.15,18.15,0,0,1-8-8.3A2.41,2.41,0,0,1,0,88.12a2.31,2.31,0,0,1,.8-1.78A3.1,3.1,0,0,1,3,85.62a3.16,3.16,0,0,1,1.7.49,3,3,0,0,1,1.18,1.4A12.75,12.75,0,0,0,11.63,93a20.39,20.39,0,0,0,9.44,2.08q6.21,0,10-3a10.09,10.09,0,0,0,3.78-8.38,10.5,10.5,0,0,0-3.52-8q-3.53-3.25-10.57-4.17Q12,70.46,6.94,66A13.94,13.94,0,0,1,1.89,55.15a13.44,13.44,0,0,1,2.47-8,15.67,15.67,0,0,1,6.82-5.3A25,25,0,0,1,21.07,40a20.65,20.65,0,0,1,10.54,2.65,19.9,19.9,0,0,1,7.12,6.9,3.36,3.36,0,0,1,.53,1.82,2.54,2.54,0,0,1-1.36,2.27,2.94,2.94,0,0,1-1.37.31A3,3,0,0,1,35,53.52a3.33,3.33,0,0,1-1.18-1.18Q29.56,45.68,21,45.6q-6.13,0-9.7,2.58a8.52,8.52,0,0,0-3.56,7.35q0,8.86,14.33,10.76,9.39,1.36,14,5.76a15.27,15.27,0,0,1,4.62,11.6,15.77,15.77,0,0,1-9.62,15,24.19,24.19,0,0,1-10,2A26,26,0,0,1,8.3,97.63Z"/><path class="cls-3" d="M60.37,97.59a19.65,19.65,0,0,1-7.54-7.54,21.51,21.51,0,0,1-2.73-10.8,21.74,21.74,0,0,1,2.73-10.84,19.62,19.62,0,0,1,7.54-7.58,21.51,21.51,0,0,1,10.8-2.73,21.28,21.28,0,0,1,10.76,2.73,20,20,0,0,1,7.54,7.58,22.66,22.66,0,0,1,0,21.64A19.65,19.65,0,0,1,82,97.59a22.73,22.73,0,0,1-21.6,0ZM79.05,93a14.54,14.54,0,0,0,5.46-5.65,16.57,16.57,0,0,0,2-8.07,16.74,16.74,0,0,0-2-8.15,14.52,14.52,0,0,0-5.46-5.64,16.11,16.11,0,0,0-15.73,0,14.62,14.62,0,0,0-5.53,5.64,16.44,16.44,0,0,0-2,8.15,16.27,16.27,0,0,0,2,8.07A14.65,14.65,0,0,0,63.32,93a16.11,16.11,0,0,0,15.73,0Z"/><path class="cls-3" d="M140.44,59.28a2.74,2.74,0,0,1,.84,2.08V97a2.86,2.86,0,0,1-3,3,2.72,2.72,0,0,1-2.08-.83,3,3,0,0,1-.8-2.12V94.41a17.86,17.86,0,0,1-6.06,4.4,18.79,18.79,0,0,1-7.73,1.59A20.27,20.27,0,0,1,112,98.12a16.29,16.29,0,0,1-6.71-6.63,21.17,21.17,0,0,1-2.42-10.42V61.36a2.85,2.85,0,0,1,2.88-2.88,2.85,2.85,0,0,1,2.12.84,2.76,2.76,0,0,1,.84,2V81.07q0,6.75,3.75,10.27a13.74,13.74,0,0,0,9.81,3.52A15.15,15.15,0,0,0,129,93.42a11.78,11.78,0,0,0,4.74-4,9.8,9.8,0,0,0,1.74-5.65V61.36a2.74,2.74,0,0,1,2.88-2.88A2.94,2.94,0,0,1,140.44,59.28Z"/><path class="cls-3" d="M184.21,60.3a16.35,16.35,0,0,1,6.71,6.63,21.11,21.11,0,0,1,2.43,10.43v19.7a2.78,2.78,0,0,1-.84,2,2.75,2.75,0,0,1-2,.83,2.88,2.88,0,0,1-2.13-.83,2.81,2.81,0,0,1-.83-2V77.36q0-6.75-3.75-10.27a13.77,13.77,0,0,0-9.82-3.53,15.24,15.24,0,0,0-6.7,1.44,11.82,11.82,0,0,0-4.74,4,9.71,9.71,0,0,0-1.75,5.65V97.06a2.72,2.72,0,0,1-2.88,2.88,3,3,0,0,1-2.12-.79,2.78,2.78,0,0,1-.83-2.09V61.44a2.86,2.86,0,0,1,3-3,2.75,2.75,0,0,1,2.09.84,2.93,2.93,0,0,1,.79,2.12V64a17.67,17.67,0,0,1,6.07-4.4A18.73,18.73,0,0,1,174.55,58,20.31,20.31,0,0,1,184.21,60.3Z"/><path class="cls-2" d="M257,99a3,3,0,0,1-.9-2.17,2.93,2.93,0,0,1,.86-2.13l23.87-28.2A17.4,17.4,0,0,0,284,61.78a12.24,12.24,0,0,0,1.18-4.93,12.86,12.86,0,0,0-3.27-9.06,10.82,10.82,0,0,0-8.31-3.54,11,11,0,0,0-6,1.69,12.22,12.22,0,0,0-4.25,4.57,12.88,12.88,0,0,0-1.58,6.34,2.82,2.82,0,0,1-.91,2.13,3.13,3.13,0,0,1-4.33,0,2.85,2.85,0,0,1-.9-2.13A19.07,19.07,0,0,1,258,47.4a17.24,17.24,0,0,1,6.46-6.66,17.75,17.75,0,0,1,9.14-2.4,17.56,17.56,0,0,1,9.1,2.36,16.57,16.57,0,0,1,6.22,6.58,20,20,0,0,1,2.24,9.57q0,6.39-6.14,13.55L264.86,93.8h24.66a3.07,3.07,0,0,1,3.07,3.07,3.07,3.07,0,0,1-.86,2.17,3,3,0,0,1-2.21.9H259.19A3,3,0,0,1,257,99Z"/><path class="cls-3" d="M384.91,50.87a20.24,20.24,0,0,1,7.58,7.62,21.37,21.37,0,0,1,2.77,10.76V87.06a2.78,2.78,0,0,1-.84,2,2.84,2.84,0,0,1-2.12.83,2.93,2.93,0,0,1-2.12-.79,2.75,2.75,0,0,1-.84-2.09V82.52a18.78,18.78,0,0,1-6.74,5.72,19.6,19.6,0,0,1-9,2.08A19.93,19.93,0,0,1,355.81,80a22.48,22.48,0,0,1,.07-21.49,20.17,20.17,0,0,1,7.58-7.62,22.15,22.15,0,0,1,21.45,0ZM382,83a14.71,14.71,0,0,0,5.5-5.65,17.21,17.21,0,0,0,0-16.14,15.27,15.27,0,0,0-26.68,0,17.21,17.21,0,0,0,0,16.14A14.65,14.65,0,0,0,366.34,83a15.38,15.38,0,0,0,7.85,2A15.14,15.14,0,0,0,382,83Z"/><path class="cls-3" d="M440.81,50.91a3.36,3.36,0,0,1-.31,1.36l-24.55,54a2.32,2.32,0,0,1-2.2,1.74,3.06,3.06,0,0,1-1.37-.3,2.36,2.36,0,0,1-1.74-2.28,3.38,3.38,0,0,1,.3-1.36l7.51-16.6v-.07l-16.9-35a2.9,2.9,0,0,1-.31-1.36,2.35,2.35,0,0,1,1.67-2.28,3,3,0,0,1,1.36-.3A2.35,2.35,0,0,1,406.55,50l14.78,31.15,14.09-31.07a2.44,2.44,0,0,1,2.28-1.67,3.35,3.35,0,0,1,1.36.3A2.32,2.32,0,0,1,440.81,50.91Z"/><path class="cls-3" d="M341.6,50.68V33.92a3,3,0,0,0,0-.43V3A3,3,0,0,0,339.1.09a2.4,2.4,0,0,0-.93-.07L242.44,11.15a2.46,2.46,0,0,0-2.16,2.72.78.78,0,0,0,0,.16V43.49s0,.06,0,.1,0,.07,0,.11V65.91a18.87,18.87,0,0,0-6.74-5.72,19.6,19.6,0,0,0-9-2.09,20,20,0,0,0-17.78,10.35A21.64,21.64,0,0,0,204,79.18a21.27,21.27,0,0,0,2.77,10.76,20.17,20.17,0,0,0,7.58,7.62,22.22,22.22,0,0,0,21.45,0,20.24,20.24,0,0,0,7.58-7.62,21.36,21.36,0,0,0,2.76-10.76V61.36a2.35,2.35,0,0,0-.07-.68V44.14a3.5,3.5,0,0,0,.07-.65V21.29l89.56-10.41V33.49c0,.11,0,.21,0,.32v22.1A18.82,18.82,0,0,0,329,50.19a19.57,19.57,0,0,0-9-2.09,20,20,0,0,0-17.77,10.35,21.64,21.64,0,0,0-2.69,10.73,21.27,21.27,0,0,0,2.77,10.76,20.17,20.17,0,0,0,7.58,7.62,22.2,22.2,0,0,0,21.44,0,20.17,20.17,0,0,0,7.58-7.62,21.27,21.27,0,0,0,2.77-10.76V51.36A2.76,2.76,0,0,0,341.6,50.68ZM238.4,87.25a15.29,15.29,0,0,1-26.68,0,17.3,17.3,0,0,1,0-16.15,14.65,14.65,0,0,1,5.54-5.64,15.27,15.27,0,0,1,7.84-2,14.7,14.7,0,0,1,10.2,3.79,15.21,15.21,0,0,1,5,9.7.86.86,0,0,0,.08.38,17.56,17.56,0,0,1,.07,1.9A16.27,16.27,0,0,1,238.4,87.25Zm95.5-10a15.29,15.29,0,0,1-26.68,0,17.23,17.23,0,0,1,0-16.15,14.65,14.65,0,0,1,5.54-5.64,15.27,15.27,0,0,1,7.84-2.05,14.66,14.66,0,0,1,10.19,3.79,15.22,15.22,0,0,1,5,9.7.86.86,0,0,0,.07.38,17,17,0,0,1,.08,1.9A16.27,16.27,0,0,1,333.9,77.25Z"/></g></g></svg>