<svg id="Warstwa_1" data-name="Warstwa 1" xmlns="http://www.w3.org/2000/svg" viewBox="0 0 805.46 459.09"><defs><style></style></defs><title>Sound2day</title><path d="M190.63,273.19a18.1,18.1,0,0,1-8-8.3,2.41,2.41,0,0,1-.3-1.21,2.33,2.33,0,0,1,.79-1.79,3.15,3.15,0,0,1,2.16-.72,3.18,3.18,0,0,1,1.71.5,2.89,2.89,0,0,1,1.17,1.4,12.76,12.76,0,0,0,5.8,5.49,20.36,20.36,0,0,0,9.44,2.09q6.21,0,10-3a10.07,10.07,0,0,0,3.79-8.38,10.5,10.5,0,0,0-3.52-8q-3.53-3.27-10.58-4.17-8.79-1.07-13.83-5.5a13.92,13.92,0,0,1-5-10.87,13.35,13.35,0,0,1,2.47-8,15.69,15.69,0,0,1,6.82-5.31,25.13,25.13,0,0,1,9.89-1.85,20.49,20.49,0,0,1,10.53,2.65,19.93,19.93,0,0,1,7.13,6.9,3.33,3.33,0,0,1,.53,1.82,2.56,2.56,0,0,1-1.37,2.27,3,3,0,0,1-1.36.3,3.1,3.1,0,0,1-1.55-.41,3.18,3.18,0,0,1-1.18-1.18q-4.24-6.66-12.81-6.74-6.13,0-9.7,2.57a8.52,8.52,0,0,0-3.56,7.35q0,8.88,14.32,10.77,9.41,1.36,14,5.76A15.22,15.22,0,0,1,223,259.2a16.16,16.16,0,0,1-2.58,9.18,16.34,16.34,0,0,1-7,5.87,24.11,24.11,0,0,1-10,2A26.08,26.08,0,0,1,190.63,273.19Z"/><path d="M242.7,273.15a19.67,19.67,0,0,1-7.55-7.54,22.88,22.88,0,0,1,0-21.64,19.64,19.64,0,0,1,7.55-7.58,22.65,22.65,0,0,1,21.56,0A20,20,0,0,1,271.8,244a22.66,22.66,0,0,1,0,21.64,19.72,19.72,0,0,1-7.54,7.54,22.73,22.73,0,0,1-21.6,0Zm18.68-4.62a14.61,14.61,0,0,0,5.46-5.65,16.57,16.57,0,0,0,2-8.07,16.74,16.74,0,0,0-2-8.15,14.61,14.61,0,0,0-5.46-5.65,16.18,16.18,0,0,0-15.73,0,14.72,14.72,0,0,0-5.53,5.65,16.44,16.44,0,0,0-2,8.15,16.27,16.27,0,0,0,2,8.07,14.72,14.72,0,0,0,5.53,5.65,16.18,16.18,0,0,0,15.73,0Z"/><path d="M322.77,234.84a2.72,2.72,0,0,1,.83,2.08v35.62a2.84,2.84,0,0,1-3,3,2.78,2.78,0,0,1-2.09-.83,3,3,0,0,1-.79-2.13V270a17.64,17.64,0,0,1-6.07,4.39A18.73,18.73,0,0,1,304,276a20.2,20.2,0,0,1-9.66-2.27,16.35,16.35,0,0,1-6.71-6.63,21.09,21.09,0,0,1-2.42-10.42V236.92a2.78,2.78,0,0,1,.83-2,2.81,2.81,0,0,1,2.05-.83,2.89,2.89,0,0,1,2.12.83,2.81,2.81,0,0,1,.83,2v19.71q0,6.74,3.75,10.27a13.78,13.78,0,0,0,9.82,3.52,15.32,15.32,0,0,0,6.71-1.44,11.78,11.78,0,0,0,4.73-4,9.68,9.68,0,0,0,1.75-5.64V236.92a2.8,2.8,0,0,1,.79-2.08,2.83,2.83,0,0,1,2.09-.8A3,3,0,0,1,322.77,234.84Z"/><path d="M366.54,235.86a16.41,16.41,0,0,1,6.71,6.63,21.2,21.2,0,0,1,2.42,10.42v19.71a2.84,2.84,0,0,1-2.88,2.88,2.89,2.89,0,0,1-2.12-.83,2.78,2.78,0,0,1-.83-2.05V252.91q0-6.74-3.75-10.27a13.78,13.78,0,0,0-9.82-3.52,15.29,15.29,0,0,0-6.71,1.44,12,12,0,0,0-4.74,4,9.74,9.74,0,0,0-1.74,5.64v22.44a2.8,2.8,0,0,1-.79,2.08,2.83,2.83,0,0,1-2.09.8,2.94,2.94,0,0,1-2.12-.8,2.72,2.72,0,0,1-.83-2.08V237a2.84,2.84,0,0,1,2.95-3,2.78,2.78,0,0,1,2.09.83,3,3,0,0,1,.79,2.13v2.57a17.64,17.64,0,0,1,6.07-4.39,18.73,18.73,0,0,1,7.73-1.59A20.25,20.25,0,0,1,366.54,235.86Z"/><path fill="#548d9b" d="M439.35,274.59a3,3,0,0,1-.9-2.16,2.89,2.89,0,0,1,.86-2.13l23.87-28.2a17.65,17.65,0,0,0,3.15-4.77,12.07,12.07,0,0,0,1.18-4.92,12.83,12.83,0,0,0-3.27-9.06,10.83,10.83,0,0,0-8.31-3.55,10.94,10.94,0,0,0-6,1.7,12.25,12.25,0,0,0-4.26,4.57,13,13,0,0,0-1.57,6.34,2.86,2.86,0,0,1-.91,2.13,3.16,3.16,0,0,1-4.33,0,2.82,2.82,0,0,1-.91-2.13,19.05,19.05,0,0,1,2.37-9.45,17.17,17.17,0,0,1,6.46-6.66,17.71,17.71,0,0,1,9.13-2.4,17.41,17.41,0,0,1,9.1,2.36,16.6,16.6,0,0,1,6.23,6.58,20.11,20.11,0,0,1,2.24,9.57q0,6.38-6.14,13.55l-20.17,23.4h24.66a3.09,3.09,0,0,1,3.07,3.07,3,3,0,0,1-.87,2.16,2.9,2.9,0,0,1-2.2.91H441.52A2.94,2.94,0,0,1,439.35,274.59Z"/><path d="M567.24,226.43a20.17,20.17,0,0,1,7.58,7.62,21.36,21.36,0,0,1,2.76,10.76v17.81a2.81,2.81,0,0,1-.83,2.05,2.89,2.89,0,0,1-2.12.83,3,3,0,0,1-2.13-.8,2.76,2.76,0,0,1-.83-2.08v-4.55a18.62,18.62,0,0,1-6.75,5.72,19.53,19.53,0,0,1-9,2.09,20,20,0,0,1-17.78-10.35,21.63,21.63,0,0,1-2.69-10.72,21.27,21.27,0,0,1,2.77-10.76,20,20,0,0,1,7.58-7.62,22.15,22.15,0,0,1,21.45,0Zm-2.92,32.1a14.83,14.83,0,0,0,5.49-5.65,17.21,17.21,0,0,0,0-16.14,15.28,15.28,0,0,0-26.68,0,17.28,17.28,0,0,0,0,16.14,14.74,14.74,0,0,0,5.54,5.65,15.36,15.36,0,0,0,7.84,2A15.2,15.2,0,0,0,564.32,258.53Z"/><path d="M623.13,226.47a3.35,3.35,0,0,1-.3,1.36l-24.56,54a2.3,2.3,0,0,1-2.2,1.74,3,3,0,0,1-1.36-.3A2.37,2.37,0,0,1,593,281a3.35,3.35,0,0,1,.3-1.36l7.5-16.6v-.08l-16.9-35a3.06,3.06,0,0,1-.3-1.37,2.33,2.33,0,0,1,1.67-2.27,3,3,0,0,1,1.36-.31,2.34,2.34,0,0,1,2.27,1.6l14.78,31.15,14.1-31.08A2.44,2.44,0,0,1,620,224a3.37,3.37,0,0,1,1.37.31A2.31,2.31,0,0,1,623.13,226.47Z"/><path d="M523.92,226.24V209.48a3,3,0,0,0,.05-.43V178.56a2.94,2.94,0,0,0-2.54-2.91,2.67,2.67,0,0,0-.94-.08l-95.73,11.14a2.47,2.47,0,0,0-2.16,2.71c0,.06,0,.11,0,.17v29.46s0,.06,0,.09,0,.08,0,.12v22.21a18.72,18.72,0,0,0-6.75-5.72,19.57,19.57,0,0,0-9-2.09A20,20,0,0,0,389.05,244a22.51,22.51,0,0,0,.08,21.49,20,20,0,0,0,7.57,7.61,22.15,22.15,0,0,0,21.45,0,20.07,20.07,0,0,0,7.58-7.61,21.33,21.33,0,0,0,2.77-10.77V236.92a2.28,2.28,0,0,0-.08-.68V219.69a2.74,2.74,0,0,0,.08-.64v-22.2l89.55-10.42v22.62a1.55,1.55,0,0,0,0,.31v22.11a18.72,18.72,0,0,0-6.75-5.72,19.6,19.6,0,0,0-9-2.09A20,20,0,0,0,484.55,234a22.53,22.53,0,0,0,.07,21.48,20.1,20.1,0,0,0,7.58,7.62,22.15,22.15,0,0,0,21.45,0,20,20,0,0,0,7.58-7.62A21.27,21.27,0,0,0,524,244.73V226.92A2.28,2.28,0,0,0,523.92,226.24ZM420.73,262.8a15.27,15.27,0,0,1-26.68,0,17.21,17.21,0,0,1,0-16.14,14.72,14.72,0,0,1,5.53-5.65,15.4,15.4,0,0,1,7.85-2,14.66,14.66,0,0,1,10.19,3.79,15.2,15.2,0,0,1,5,9.7.86.86,0,0,0,.07.38,16.63,16.63,0,0,1,.08,1.89A16.27,16.27,0,0,1,420.73,262.8Zm95.5-10a15,15,0,0,1-5.5,5.69,14.88,14.88,0,0,1-7.8,2.08,15.13,15.13,0,0,1-7.85-2.08,15,15,0,0,1-5.53-5.69,17.21,17.21,0,0,1,0-16.14,14.72,14.72,0,0,1,5.53-5.65,15.4,15.4,0,0,1,7.85-2,14.66,14.66,0,0,1,10.19,3.79,15.2,15.2,0,0,1,5,9.7.86.86,0,0,0,.07.38,16.63,16.63,0,0,1,.08,1.89A16.27,16.27,0,0,1,516.23,252.8Z"/></svg>